<?xml version="1.0" standalone="no"?>
<!DOCTYPE svg PUBLIC "-//W3C//DTD SVG 20010904//EN"
 "http://www.w3.org/TR/2001/REC-SVG-20010904/DTD/svg10.dtd">
<svg version="1.0" xmlns="http://www.w3.org/2000/svg"
 width="374.000000pt" height="374.000000pt" viewBox="0 0 374.000000 374.000000"
 preserveAspectRatio="xMidYMid meet">
<metadata>
Created by potrace 1.11, written by Peter Selinger 2001-2013
</metadata>
<g transform="translate(0.000000,374.000000) scale(0.100000,-0.100000)"
fill="#000000" stroke="none">
<path d="M1973 3520 c-4 -4 -26 -13 -48 -20 -44 -14 -175 -97 -175 -111 0 -5
-6 -9 -13 -9 -15 0 -29 -16 -77 -85 -19 -27 -37 -52 -40 -55 -5 -5 -28 -58
-46 -105 -4 -11 -6 -26 -5 -32 1 -7 -2 -13 -7 -13 -10 0 -10 2 -16 -109 -3
-46 -2 -89 1 -95 4 -6 8 -22 9 -36 3 -30 5 -37 29 -117 11 -35 23 -63 27 -63
8 0 1 -46 -11 -69 -8 -15 -29 -97 -35 -137 -2 -11 2 -25 8 -33 6 -8 10 -16 9
-17 -1 -2 -1 -9 2 -16 2 -7 6 -53 9 -103 5 -96 13 -154 25 -170 8 -12 8 -22
-3 -53 -6 -19 -14 -23 -32 -19 -13 2 -24 0 -24 -5 0 -5 -13 -7 -29 -3 -18 4
-41 1 -58 -8 -33 -17 -58 -15 -83 8 -17 16 -21 15 -64 -3 -25 -12 -54 -29 -65
-39 -20 -18 -20 -19 -1 -89 10 -38 16 -82 13 -97 l-6 -28 49 23 c27 13 51 26
54 30 3 3 19 9 35 13 17 4 38 9 48 12 30 8 35 -32 15 -121 -11 -44 -20 -90
-22 -101 -2 -11 -4 -20 -5 -20 -4 0 -12 -40 -16 -80 -2 -22 -9 -78 -15 -125
-6 -47 -10 -140 -9 -207 6 -300 -2 -708 -15 -753 -4 -14 -8 -29 -9 -35 -2 -5
-5 -15 -9 -20 -3 -6 -9 -27 -13 -47 -8 -42 16 -88 46 -88 10 0 20 -3 22 -7 7
-11 297 -8 322 3 11 4 27 17 36 28 15 18 15 24 2 63 -8 24 -19 45 -24 49 -14
8 -10 138 7 254 9 58 17 112 18 120 1 9 5 20 9 26 3 6 4 22 2 34 -3 13 -1 28
4 34 11 13 12 104 2 110 -9 6 -7 208 3 224 11 18 51 14 69 -6 10 -10 14 -22
10 -25 -3 -4 -2 -7 4 -7 6 0 16 -14 23 -30 7 -17 16 -30 21 -30 5 0 8 -3 7 -7
-1 -5 8 -30 21 -58 13 -27 24 -54 25 -60 1 -5 5 -16 9 -22 5 -7 15 -36 23 -65
8 -29 18 -60 21 -68 7 -17 12 -48 17 -103 2 -21 6 -41 10 -44 12 -12 6 -105
-9 -134 -9 -16 -13 -34 -10 -39 3 -6 2 -10 -3 -10 -6 0 -10 -16 -10 -35 0 -19
3 -35 7 -35 4 0 13 -15 19 -34 16 -43 103 -121 145 -131 37 -9 46 -12 50 -15
8 -7 194 -5 205 3 6 5 12 7 12 3 0 -3 9 3 20 14 21 21 33 87 18 96 -5 3 -6 9
-3 14 3 5 -14 29 -38 54 -37 37 -46 54 -52 98 -5 29 -7 67 -6 83 13 228 13
266 -3 290 -9 14 -14 25 -11 25 3 0 -1 16 -9 35 -9 20 -15 36 -15 38 2 3 -22
91 -28 107 -3 8 -7 24 -9 35 -2 11 -5 27 -7 35 -2 8 -9 42 -16 75 -7 33 -15
67 -18 75 -3 8 -6 35 -8 60 -2 25 -6 59 -10 75 -3 17 -8 53 -11 80 -2 28 -7
66 -10 86 -6 40 -8 39 91 55 6 1 13 3 18 4 4 1 10 3 15 4 52 14 101 30 117 39
11 6 22 12 25 12 18 4 80 40 80 47 0 4 7 8 15 8 8 0 52 38 98 84 101 103 115
120 130 154 6 15 15 29 19 32 4 3 20 41 36 85 16 44 35 81 41 81 6 1 18 2 26
3 18 1 82 57 96 84 6 11 13 31 15 46 5 39 10 200 5 195 -8 -7 -31 18 -31 35 0
8 -19 33 -41 53 -31 28 -50 38 -75 38 -25 0 -34 4 -35 18 -4 89 -19 133 -63
179 -26 28 -25 28 -60 -2 -16 -14 -33 -25 -37 -25 -5 0 -27 18 -51 41 -24 22
-49 44 -57 49 -8 4 -18 30 -22 56 -4 27 -10 60 -14 74 -3 14 -7 30 -8 35 -2 6
-5 15 -8 20 -3 6 -12 30 -19 55 -15 48 -74 143 -109 174 -14 13 -21 31 -21 58
0 34 -3 38 -25 38 -14 0 -39 10 -56 22 -21 16 -41 21 -69 19 -21 -1 -49 3 -62
10 -25 14 -231 21 -245 9z"/>
<path d="M1518 2390 c-16 -5 -28 -6 -28 -4 0 3 -19 -8 -42 -25 -48 -33 -146
-135 -196 -203 l-32 -45 -78 -6 c-42 -3 -94 -13 -115 -22 -56 -23 -107 -58
-107 -72 0 -7 -5 -13 -10 -13 -16 0 -50 -62 -50 -92 0 -34 25 -65 66 -83 17
-7 44 -30 60 -51 36 -49 43 -54 74 -54 20 0 22 -2 10 -10 -26 -17 -34 -12
-104 56 -55 53 -70 63 -82 53 -8 -6 -14 -8 -14 -5 0 4 -7 0 -16 -8 -8 -9 -24
-16 -34 -16 -10 0 -21 -4 -24 -8 -2 -4 -40 -25 -83 -46 -183 -88 -208 -101
-213 -106 -3 -3 -10 -6 -17 -7 -6 -2 -51 -21 -99 -44 -47 -23 -93 -42 -101
-42 -8 0 -19 -11 -24 -24 -5 -12 -16 -23 -24 -23 -10 0 -15 -7 -13 -17 2 -12
-4 -19 -19 -21 -30 -4 -56 -41 -42 -58 6 -7 8 -17 5 -22 -7 -12 33 -48 64 -55
30 -8 112 10 125 26 6 7 44 29 85 49 307 148 368 177 388 183 12 3 22 11 22
16 0 5 3 8 8 7 13 -3 217 98 231 115 10 13 17 14 33 6 11 -6 32 -8 47 -5 82
20 93 19 117 -9 18 -22 26 -25 42 -16 21 11 34 34 37 66 1 11 6 28 10 38 9 22
-10 22 -61 0 -48 -21 -70 -22 -65 -3 9 35 1 123 -12 136 -14 15 -6 72 13 94
11 13 20 20 20 16 0 -3 11 1 24 9 13 9 38 20 55 25 27 7 35 6 49 -11 20 -23
31 -24 68 -4 35 18 56 19 73 3 11 -11 12 -10 6 0 -5 11 1 13 26 10 40 -4 41 4
22 92 -7 30 -13 91 -13 136 0 49 -5 85 -12 92 -13 13 -13 13 -50 2z"/>
</g>
</svg>
